<svg xmlns="http://www.w3.org/2000/svg" viewBox="0 0 120 120" preserveAspectRatio="xMidYMid meet">
  <defs>
    <radialGradient id="bg8" cx="0.5" cy="0.4">
      <stop offset="0" stop-color="#554422"/>
      <stop offset="1" stop-color="#151005"/>
    </radialGradient>
    <linearGradient id="helmet8" x1="0" y1="0" x2="0" y2="1">
      <stop offset="0" stop-color="#e8e8f0"/>
      <stop offset="0.5" stop-color="#bbbcc8"/>
      <stop offset="1" stop-color="#777788"/>
    </linearGradient>
    <linearGradient id="visor8" x1="0" y1="0" x2="0" y2="1">
      <stop offset="0" stop-color="#ff99bb"/>
      <stop offset="0.5" stop-color="#cc5577"/>
      <stop offset="1" stop-color="#662244"/>
    </linearGradient>
  </defs>
  <circle cx="60" cy="60" r="60" fill="url(#bg8)"/>
  <g fill="#ffffff" opacity="0.7">
    <circle cx="20" cy="20" r="0.8"/>
    <circle cx="100" cy="25" r="1"/>
    <circle cx="22" cy="95" r="0.7"/>
    <circle cx="100" cy="100" r="0.9"/>
  </g>
  <ellipse cx="60" cy="105" rx="40" ry="20" fill="#d8d8e0" stroke="#777788" stroke-width="0.5"/>
  <rect x="35" y="80" width="50" height="30" fill="#d8d8e0" stroke="#777788" stroke-width="0.5"/>
  <rect x="55" y="85" width="10" height="8" fill="#ff8800"/>
  <text x="60" y="92" text-anchor="middle" font-size="5" font-weight="bold" fill="#000">ROSCOSMOS</text>
  <circle cx="60" cy="55" r="32" fill="url(#helmet8)" stroke="#777788" stroke-width="1.5"/>
  <ellipse cx="60" cy="55" rx="24" ry="20" fill="url(#visor8)" stroke="#000" stroke-width="0.5"/>
  <ellipse cx="50" cy="48" rx="6" ry="3" fill="#ffffff" opacity="0.5"/>
  <ellipse cx="60" cy="60" rx="14" ry="16" fill="#c89a72" opacity="0.4"/>
  <path d="M 35 40 A 32 32 0 0 1 60 23" fill="none" stroke="#fff" stroke-width="2" opacity="0.6"/>
  <rect x="78" y="95" width="8" height="6" fill="#ffffff"/>
  <rect x="78" y="95" width="4" height="3" fill="#0033cc"/>
  <rect x="78" y="98" width="4" height="3" fill="#cc0000"/>
</svg>
