<svg xmlns="http://www.w3.org/2000/svg" viewBox="0 0 120 120" preserveAspectRatio="xMidYMid meet">
  <defs>
    <radialGradient id="bg2" cx="0.5" cy="0.4">
      <stop offset="0" stop-color="#552233"/>
      <stop offset="1" stop-color="#100510"/>
    </radialGradient>
    <linearGradient id="helmet2" x1="0" y1="0" x2="0" y2="1">
      <stop offset="0" stop-color="#ffe8ee"/>
      <stop offset="0.5" stop-color="#ffbbbb"/>
      <stop offset="1" stop-color="#aa6677"/>
    </linearGradient>
    <linearGradient id="visor2" x1="0" y1="0" x2="0" y2="1">
      <stop offset="0" stop-color="#ff88cc"/>
      <stop offset="0.5" stop-color="#cc4488"/>
      <stop offset="1" stop-color="#552255"/>
    </linearGradient>
  </defs>
  <circle cx="60" cy="60" r="60" fill="url(#bg2)"/>
  <g fill="#ffffff" opacity="0.7">
    <circle cx="25" cy="25" r="0.8"/>
    <circle cx="95" cy="35" r="1"/>
    <circle cx="20" cy="85" r="0.7"/>
    <circle cx="100" cy="90" r="0.9"/>
  </g>
  <ellipse cx="60" cy="105" rx="40" ry="20" fill="#ffd0d8" stroke="#aa6677" stroke-width="0.5"/>
  <rect x="35" y="80" width="50" height="30" fill="#ffd0d8" stroke="#aa6677" stroke-width="0.5"/>
  <rect x="55" y="85" width="10" height="8" fill="#ff4466"/>
  <text x="60" y="92" text-anchor="middle" font-size="5" font-weight="bold" fill="#fff">ESA</text>
  <circle cx="60" cy="55" r="32" fill="url(#helmet2)" stroke="#aa6677" stroke-width="1.5"/>
  <ellipse cx="60" cy="55" rx="24" ry="20" fill="url(#visor2)" stroke="#000" stroke-width="0.5"/>
  <ellipse cx="50" cy="48" rx="6" ry="3" fill="#ffffff" opacity="0.5"/>
  <ellipse cx="60" cy="60" rx="14" ry="16" fill="#e8b89a" opacity="0.4"/>
  <path d="M 35 40 A 32 32 0 0 1 60 23" fill="none" stroke="#fff" stroke-width="2" opacity="0.6"/>
  <rect x="34" y="95" width="8" height="6" fill="#0066cc"/>
  <g fill="#ffcc00">
    <circle cx="38" cy="98" r="1"/>
  </g>
</svg>
