<svg xmlns="http://www.w3.org/2000/svg" viewBox="0 0 120 120" preserveAspectRatio="xMidYMid meet">
  <defs>
    <radialGradient id="bg6" cx="0.5" cy="0.4">
      <stop offset="0" stop-color="#553355"/>
      <stop offset="1" stop-color="#100510"/>
    </radialGradient>
    <linearGradient id="helmet6" x1="0" y1="0" x2="0" y2="1">
      <stop offset="0" stop-color="#ffe8cc"/>
      <stop offset="0.5" stop-color="#e8c8a8"/>
      <stop offset="1" stop-color="#aa8866"/>
    </linearGradient>
    <linearGradient id="visor6" x1="0" y1="0" x2="0" y2="1">
      <stop offset="0" stop-color="#aaffff"/>
      <stop offset="0.5" stop-color="#44aacc"/>
      <stop offset="1" stop-color="#115566"/>
    </linearGradient>
  </defs>
  <circle cx="60" cy="60" r="60" fill="url(#bg6)"/>
  <g fill="#ffffff" opacity="0.7">
    <circle cx="20" cy="22" r="0.8"/>
    <circle cx="100" cy="25" r="1"/>
    <circle cx="18" cy="90" r="0.7"/>
  </g>
  <ellipse cx="60" cy="105" rx="40" ry="20" fill="#e8c8a8" stroke="#aa8866" stroke-width="0.5"/>
  <rect x="35" y="80" width="50" height="30" fill="#e8c8a8" stroke="#aa8866" stroke-width="0.5"/>
  <rect x="55" y="85" width="10" height="8" fill="#00ccff"/>
  <text x="60" y="92" text-anchor="middle" font-size="5" font-weight="bold" fill="#000">CASC</text>
  <circle cx="60" cy="55" r="32" fill="url(#helmet6)" stroke="#aa8866" stroke-width="1.5"/>
  <ellipse cx="60" cy="55" rx="24" ry="20" fill="url(#visor6)" stroke="#000" stroke-width="0.5"/>
  <ellipse cx="50" cy="48" rx="6" ry="3" fill="#ffffff" opacity="0.5"/>
  <ellipse cx="60" cy="60" rx="14" ry="16" fill="#d4a584" opacity="0.4"/>
  <path d="M 35 40 A 32 32 0 0 1 60 23" fill="none" stroke="#fff" stroke-width="2" opacity="0.6"/>
  <rect x="78" y="95" width="8" height="6" fill="#cc0000"/>
  <text x="82" y="100" text-anchor="middle" font-size="5" fill="#ffcc00">★</text>
</svg>
