<svg xmlns="http://www.w3.org/2000/svg" viewBox="0 0 120 120" preserveAspectRatio="xMidYMid meet">
  <defs>
    <radialGradient id="bg3" cx="0.5" cy="0.4">
      <stop offset="0" stop-color="#335522"/>
      <stop offset="1" stop-color="#051005"/>
    </radialGradient>
    <linearGradient id="helmet3" x1="0" y1="0" x2="0" y2="1">
      <stop offset="0" stop-color="#e8e8e8"/>
      <stop offset="0.5" stop-color="#bbbbbb"/>
      <stop offset="1" stop-color="#666666"/>
    </linearGradient>
    <linearGradient id="visor3" x1="0" y1="0" x2="0" y2="1">
      <stop offset="0" stop-color="#88ff88"/>
      <stop offset="0.5" stop-color="#44aa44"/>
      <stop offset="1" stop-color="#115511"/>
    </linearGradient>
  </defs>
  <circle cx="60" cy="60" r="60" fill="url(#bg3)"/>
  <g fill="#ffffff" opacity="0.7">
    <circle cx="22" cy="22" r="0.8"/>
    <circle cx="98" cy="28" r="1"/>
    <circle cx="18" cy="95" r="0.7"/>
    <circle cx="102" cy="98" r="0.9"/>
  </g>
  <ellipse cx="60" cy="105" rx="40" ry="20" fill="#d8d8d8" stroke="#666" stroke-width="0.5"/>
  <rect x="35" y="80" width="50" height="30" fill="#d8d8d8" stroke="#666" stroke-width="0.5"/>
  <rect x="55" y="85" width="10" height="8" fill="#00ff88"/>
  <text x="60" y="92" text-anchor="middle" font-size="5" font-weight="bold" fill="#000">JAXA</text>
  <circle cx="60" cy="55" r="32" fill="url(#helmet3)" stroke="#666" stroke-width="1.5"/>
  <ellipse cx="60" cy="55" rx="24" ry="20" fill="url(#visor3)" stroke="#000" stroke-width="0.5"/>
  <ellipse cx="50" cy="48" rx="6" ry="3" fill="#ffffff" opacity="0.5"/>
  <ellipse cx="60" cy="60" rx="14" ry="16" fill="#c89a72" opacity="0.4"/>
  <path d="M 35 40 A 32 32 0 0 1 60 23" fill="none" stroke="#fff" stroke-width="2" opacity="0.6"/>
  <rect x="78" y="95" width="8" height="6" fill="#ff0000"/>
  <circle cx="82" cy="98" r="2" fill="#fff"/>
</svg>
