<svg viewBox="0 0 240 320" xmlns="http://www.w3.org/2000/svg">
  <defs>
    <linearGradient id="bg" x1="0" y1="0" x2="0" y2="1">
      <stop offset="0%" stop-color="#0a0a2a"/><stop offset="100%" stop-color="#000010"/>
    </linearGradient>
    <linearGradient id="hb" x1="0" y1="0" x2="1" y2="0">
      <stop offset="0%" stop-color="#888"/><stop offset="50%" stop-color="#E8E8E8"/><stop offset="100%" stop-color="#888"/>
    </linearGradient>
  </defs>
  <rect width="240" height="320" fill="url(#bg)"/>
  <!-- 太陽能板 -->
  <rect x="20" y="100" width="50" height="50" fill="#1a2a6a" stroke="#666"/>
  <line x1="45" y1="100" x2="45" y2="150" stroke="#666"/>
  <line x1="20" y1="125" x2="70" y2="125" stroke="#666"/>
  <rect x="170" y="100" width="50" height="50" fill="#1a2a6a" stroke="#666"/>
  <line x1="195" y1="100" x2="195" y2="150" stroke="#666"/>
  <line x1="170" y1="125" x2="220" y2="125" stroke="#666"/>
  <!-- 主鏡筒（兩段）-->
  <rect x="100" y="80" width="40" height="20" fill="url(#hb)"/>
  <rect x="95" y="100" width="50" height="60" fill="url(#hb)"/>
  <rect x="100" y="160" width="40" height="30" fill="url(#hb)"/>
  <!-- 光譜儀窗口 -->
  <rect x="105" y="120" width="30" height="4" fill="#1a3a6a"/>
  <rect x="105" y="130" width="30" height="4" fill="#1a3a6a"/>
  <!-- 太陽能板支撐 -->
  <line x1="70" y1="125" x2="100" y2="100" stroke="#888" stroke-width="2"/>
  <line x1="170" y1="125" x2="140" y2="100" stroke="#888" stroke-width="2"/>
  <!-- 底座 -->
  <rect x="110" y="190" width="20" height="15" fill="#666"/>
  <text x="120" y="295" text-anchor="middle" fill="#E8E8E8" font-size="16" font-weight="bold" font-family="sans-serif" letter-spacing="1">HUBBLE</text>
</svg>