<svg viewBox="0 0 240 320" xmlns="http://www.w3.org/2000/svg">
  <defs>
    <linearGradient id="bg" x1="0" y1="0" x2="0" y2="1">
      <stop offset="0%" stop-color="#0a1a3a"/><stop offset="100%" stop-color="#000010"/>
    </linearGradient>
  </defs>
  <rect width="240" height="320" fill="url(#bg)"/>
  <!-- 4 個太陽能板（左2右2）-->
  <rect x="20" y="80" width="50" height="14" fill="#1a2a6a" stroke="#4488FF"/>
  <line x1="20" y1="87" x2="70" y2="87" stroke="#4488FF"/>
  <rect x="20" y="180" width="50" height="14" fill="#1a2a6a" stroke="#4488FF"/>
  <line x1="20" y1="187" x2="70" y2="187" stroke="#4488FF"/>
  <rect x="170" y="80" width="50" height="14" fill="#1a2a6a" stroke="#4488FF"/>
  <line x1="170" y1="87" x2="220" y2="87" stroke="#4488FF"/>
  <rect x="170" y="180" width="50" height="14" fill="#1a2a6a" stroke="#4488FF"/>
  <line x1="170" y1="187" x2="220" y2="187" stroke="#4488FF"/>
  <!-- 中央桁架（橫向）-->
  <line x1="70" y1="137" x2="170" y2="137" stroke="#888" stroke-width="3"/>
  <line x1="70" y1="95" x2="170" y2="95" stroke="#888" stroke-width="2"/>
  <line x1="70" y1="180" x2="170" y2="180" stroke="#888" stroke-width="2"/>
  <!-- 中央模組（多節圓筒）-->
  <rect x="100" y="125" width="40" height="20" fill="#E0E0E0" stroke="#666"/>
  <rect x="90" y="130" width="60" height="10" fill="#E0E0E0" stroke="#666"/>
  <circle cx="100" cy="135" r="3" fill="#4488FF"/>
  <circle cx="140" cy="135" r="3" fill="#4488FF"/>
  <!-- 地球弧線（背景底部）-->
  <ellipse cx="120" cy="280" rx="200" ry="40" fill="#1a4488" opacity="0.5"/>
  <ellipse cx="60" cy="270" rx="20" ry="6" fill="#3a8b3a" opacity="0.6"/>
  <text x="120" y="295" text-anchor="middle" fill="#FFFFFF" font-size="20" font-weight="bold" font-family="sans-serif" letter-spacing="2">ISS</text>
</svg>