<svg viewBox="0 0 240 320" xmlns="http://www.w3.org/2000/svg">
  <defs>
    <linearGradient id="bg" x1="0" y1="0" x2="0" y2="1">
      <stop offset="0%" stop-color="#0a0a2a"/><stop offset="100%" stop-color="#000010"/>
    </linearGradient>
    <linearGradient id="jw" x1="0" y1="0" x2="0" y2="1">
      <stop offset="0%" stop-color="#FFD700"/><stop offset="100%" stop-color="#AA7700"/>
    </linearGradient>
  </defs>
  <rect width="240" height="320" fill="url(#bg)"/>
  <!-- 18 個六角鏡（簡化為蜂巢） -->
  <polygon points="102,84 111,68.34 129,68.34 138,84 129,99.66 111,99.66" fill="url(#jw)" stroke="#5A4400" stroke-width="1"/>
<polygon points="102,120 111,104.34 129,104.34 138,120 129,135.66 111,135.66" fill="url(#jw)" stroke="#5A4400" stroke-width="1"/>
<polygon points="102,156 111,140.34 129,140.34 138,156 129,171.66 111,171.66" fill="url(#jw)" stroke="#5A4400" stroke-width="1"/>
<polygon points="63,102 72,86.34 90,86.34 99,102 90,117.66 72,117.66" fill="url(#jw)" stroke="#5A4400" stroke-width="1"/>
<polygon points="63,138 72,122.34 90,122.34 99,138 90,153.66 72,153.66" fill="url(#jw)" stroke="#5A4400" stroke-width="1"/>
<polygon points="141,102 150,86.34 168,86.34 177,102 168,117.66 150,117.66" fill="url(#jw)" stroke="#5A4400" stroke-width="1"/>
<polygon points="141,138 150,122.34 168,122.34 177,138 168,153.66 150,153.66" fill="url(#jw)" stroke="#5A4400" stroke-width="1"/>

  <!-- 遮陽板（5 層菱形）-->
  <polygon points="120,180 100,250 140,250" fill="#3A2A4A" opacity="0.7"/>
  <polygon points="120,190 110,245 130,245" fill="#4A3A5A" opacity="0.7"/>
  <polygon points="120,200 115,240 125,240" fill="#5A4A6A" opacity="0.7"/>
  <!-- 連接臂 -->
  <line x1="120" y1="155" x2="120" y2="195" stroke="#888" stroke-width="2"/>
  <text x="120" y="295" text-anchor="middle" fill="#FFD700" font-size="14" font-weight="bold" font-family="sans-serif" letter-spacing="1">JAMES WEBB</text>
</svg>