<svg viewBox="0 0 240 320" xmlns="http://www.w3.org/2000/svg">
  <defs>
    <linearGradient id="bg" x1="0" y1="0" x2="0" y2="1">
      <stop offset="0%" stop-color="#1a1a2e"/><stop offset="100%" stop-color="#0a0a1a"/>
    </linearGradient>
    <linearGradient id="ss" x1="0" y1="0" x2="0" y2="1">
      <stop offset="0%" stop-color="#F0F0F0"/><stop offset="100%" stop-color="#888"/>
    </linearGradient>
  </defs>
  <rect width="240" height="320" fill="url(#bg)"/>
  <!-- 月面 -->
  <ellipse cx="120" cy="270" rx="100" ry="8" fill="#444" opacity="0.5"/>
  <!-- 4 個著陸腳架 -->
  <line x1="80" y1="200" x2="65" y2="260" stroke="#666" stroke-width="3"/>
  <line x1="160" y1="200" x2="175" y2="260" stroke="#666" stroke-width="3"/>
  <line x1="90" y1="210" x2="80" y2="265" stroke="#666" stroke-width="3"/>
  <line x1="150" y1="210" x2="160" y2="265" stroke="#666" stroke-width="3"/>
  <line x1="80" y1="200" x2="90" y2="210" stroke="#666" stroke-width="3"/>
  <line x1="160" y1="200" x2="150" y2="210" stroke="#666" stroke-width="3"/>
  <!-- 著陸器主體（梯形大肚子）-->
  <path d="M 75 200 L 165 200 L 155 110 L 85 110 Z" fill="url(#ss)"/>
  <!-- 駕駛艙窗 -->
  <rect x="100" y="120" width="40" height="8" fill="#1a4a6a" opacity="0.8"/>
  <!-- 細節 -->
  <line x1="85" y1="140" x2="155" y2="140" stroke="#666" stroke-width="1.5"/>
  <line x1="87" y1="170" x2="153" y2="170" stroke="#666" stroke-width="1.5"/>
  <!-- 月亮（背景） -->
  <circle cx="200" cy="60" r="18" fill="#DDD" opacity="0.4"/>
  <circle cx="194" cy="56" r="2" fill="#999" opacity="0.5"/>
  <circle cx="204" cy="64" r="1.5" fill="#999" opacity="0.5"/>
  <text x="120" y="295" text-anchor="middle" fill="#F0F0F0" font-size="16" font-weight="bold" font-family="sans-serif" letter-spacing="1">STARSHIP HLS</text>
</svg>