<svg viewBox="0 0 240 320" xmlns="http://www.w3.org/2000/svg">
  <defs>
    <linearGradient id="bg" x1="0" y1="0" x2="0" y2="1">
      <stop offset="0%" stop-color="#1a1a2e"/><stop offset="100%" stop-color="#0a0a1a"/>
    </linearGradient>
    <linearGradient id="sls" x1="0" y1="0" x2="1" y2="0">
      <stop offset="0%" stop-color="#A04000"/><stop offset="50%" stop-color="#FFA040"/><stop offset="100%" stop-color="#A04000"/>
    </linearGradient>
  </defs>
  <rect width="240" height="320" fill="url(#bg)"/>
  <!-- 整流罩尖 -->
  <path d="M 95 50 Q 120 30 145 50 L 145 75 L 95 75 Z" fill="url(#sls)"/>
  <!-- 巨型主芯 -->
  <rect x="95" y="75" width="50" height="135" fill="url(#sls)"/>
  <!-- 兩側 SRB（白色）-->
  <rect x="65" y="90" width="22" height="115" fill="#F0F0F0"/>
  <path d="M 65 90 Q 76 80 87 90 Z" fill="#F0F0F0"/>
  <rect x="153" y="90" width="22" height="115" fill="#F0F0F0"/>
  <path d="M 153 90 Q 164 80 175 90 Z" fill="#F0F0F0"/>
  <!-- USA 文字（假） -->
  <text x="120" y="135" text-anchor="middle" fill="#1a1a2e" font-size="11" font-weight="bold">USA</text>
  <text x="120" y="170" text-anchor="middle" fill="#1a1a2e" font-size="9">NASA</text>
  <!-- 引擎噴嘴 -->
  <rect x="100" y="210" width="40" height="20" fill="#333"/>
  <polygon points="100,230 95,250 110,230" fill="#222"/>
  <polygon points="140,230 145,250 130,230" fill="#222"/>
  <polygon points="120,230 115,250 125,230" fill="#222"/>
  <!-- 火焰 -->
  <ellipse cx="120" cy="260" rx="50" ry="25" fill="#FF8800" opacity="0.8"/>
  <ellipse cx="120" cy="265" rx="35" ry="18" fill="#FFD700"/>
  <text x="120" y="295" text-anchor="middle" fill="#FFA040" font-size="20" font-weight="bold" font-family="sans-serif" letter-spacing="2">SLS</text>
</svg>