<svg viewBox="0 0 240 320" xmlns="http://www.w3.org/2000/svg">
  <defs>
    <linearGradient id="bg" x1="0" y1="0" x2="0" y2="1">
      <stop offset="0%" stop-color="#1a1a2e"/><stop offset="100%" stop-color="#0a0a1a"/>
    </linearGradient>
    <linearGradient id="dg" x1="0" y1="0" x2="0" y2="1">
      <stop offset="0%" stop-color="#F5F5F5"/><stop offset="100%" stop-color="#AAA"/>
    </linearGradient>
  </defs>
  <rect width="240" height="320" fill="url(#bg)"/>
  <!-- 太陽能板 -->
  <rect x="20" y="130" width="50" height="40" fill="#1a2a6a" stroke="#444"/>
  <line x1="45" y1="130" x2="45" y2="170" stroke="#666"/>
  <line x1="20" y1="150" x2="70" y2="150" stroke="#666"/>
  <line x1="70" y1="150" x2="85" y2="155" stroke="#666" stroke-width="2"/>
  <rect x="170" y="130" width="50" height="40" fill="#1a2a6a" stroke="#444"/>
  <line x1="195" y1="130" x2="195" y2="170" stroke="#666"/>
  <line x1="170" y1="150" x2="220" y2="150" stroke="#666"/>
  <line x1="170" y1="150" x2="155" y2="155" stroke="#666" stroke-width="2"/>
  <!-- 膠囊主體 -->
  <path d="M 85 130 L 155 130 L 155 200 Q 155 215 120 215 Q 85 215 85 200 Z" fill="url(#dg)"/>
  <!-- 圓錐頭 -->
  <path d="M 85 130 Q 120 80 155 130 Z" fill="url(#dg)"/>
  <!-- 窗 -->
  <circle cx="120" cy="160" r="6" fill="#1a4a6a" stroke="#444"/>
  <!-- 細節線 -->
  <line x1="85" y1="185" x2="155" y2="185" stroke="#666" stroke-width="1"/>
  <text x="120" y="295" text-anchor="middle" fill="#F5F5F5" font-size="18" font-weight="bold" font-family="sans-serif" letter-spacing="1">DRAGON</text>
</svg>