<svg viewBox="0 0 240 320" xmlns="http://www.w3.org/2000/svg">
  <defs>
    <linearGradient id="bg" x1="0" y1="0" x2="0" y2="1">
      <stop offset="0%" stop-color="#1a1a2e"/><stop offset="100%" stop-color="#0a0a1a"/>
    </linearGradient>
    <linearGradient id="sz" x1="0" y1="0" x2="1" y2="0">
      <stop offset="0%" stop-color="#666"/><stop offset="50%" stop-color="#E0E0E0"/><stop offset="100%" stop-color="#666"/>
    </linearGradient>
  </defs>
  <rect width="240" height="320" fill="url(#bg)"/>
  <!-- 整流罩 -->
  <path d="M 105 55 Q 120 35 135 55 L 135 80 L 105 80 Z" fill="url(#sz)"/>
  <!-- 上段（軌道段）白 -->
  <rect x="105" y="80" width="30" height="40" fill="url(#sz)"/>
  <!-- 中段錐形（白色）-->
  <rect x="105" y="120" width="30" height="60" fill="url(#sz)"/>
  <!-- 下段錐形（白色，4 個錐）-->
  <path d="M 105 180 L 135 180 L 145 230 L 95 230 Z" fill="url(#sz)"/>
  <!-- 4 個小型助推器錐 -->
  <polygon points="100,150 90,230 100,230" fill="#CCC"/>
  <polygon points="140,150 150,230 140,230" fill="#CCC"/>
  <polygon points="105,150 95,230 105,230" fill="#AAA"/>
  <polygon points="135,150 145,230 135,230" fill="#AAA"/>
  <!-- 旗幟 -->
  <rect x="110" y="95" width="20" height="3" fill="#FFFFFF"/>
  <rect x="110" y="98" width="20" height="3" fill="#1a4a8a"/>
  <rect x="110" y="101" width="20" height="3" fill="#C8323C"/>
  <!-- 引擎 -->
  <rect x="110" y="230" width="20" height="12" fill="#333"/>
  <!-- 火焰 -->
  <ellipse cx="120" cy="260" rx="25" ry="20" fill="#FF8800" opacity="0.7"/>
  <ellipse cx="120" cy="265" rx="15" ry="14" fill="#FFD700"/>
  <text x="120" y="295" text-anchor="middle" fill="#E0E0E0" font-size="16" font-weight="bold" font-family="sans-serif" letter-spacing="1">SOYUZ</text>
</svg>