<svg viewBox="0 0 240 320" xmlns="http://www.w3.org/2000/svg">
  <defs>
    <linearGradient id="bg" x1="0" y1="0" x2="0" y2="1">
      <stop offset="0%" stop-color="#1a1a2e"/><stop offset="100%" stop-color="#0a0a1a"/>
    </linearGradient>
  </defs>
  <rect width="240" height="320" fill="url(#bg)"/>
  <!-- 跑車輪廓（Model S 風格）-->
  <path d="M 50 200 Q 50 180 70 170 L 100 170 L 110 145 Q 115 140 125 140 L 165 140 Q 175 140 180 145 L 195 170 L 220 180 Q 230 195 230 210 L 230 215 L 50 215 Z" fill="#C8323C"/>
  <!-- 車窗 -->
  <path d="M 115 145 L 175 145 L 188 170 L 105 170 Z" fill="#1a2a4a" opacity="0.8"/>
  <!-- 輪子 -->
  <circle cx="85" cy="220" r="15" fill="#222"/>
  <circle cx="85" cy="220" r="8" fill="#666"/>
  <circle cx="195" cy="220" r="15" fill="#222"/>
  <circle cx="195" cy="220" r="8" fill="#666"/>
  <!-- 地面 -->
  <line x1="30" y1="235" x2="250" y2="235" stroke="#555" stroke-width="2"/>
  <text x="120" y="280" text-anchor="middle" fill="#FFFFFF" font-size="22" font-weight="bold" font-family="sans-serif" letter-spacing="2">TESLA</text>
</svg>