<svg viewBox="0 0 240 320" xmlns="http://www.w3.org/2000/svg">
  <defs>
    <linearGradient id="bg" x1="0" y1="0" x2="0" y2="1">
      <stop offset="0%" stop-color="#0a0a2a"/><stop offset="100%" stop-color="#000010"/>
    </linearGradient>
  </defs>
  <rect width="240" height="320" fill="url(#bg)"/>
  <!-- 拋物面天線（圓形 + 內部格柵） -->
  <circle cx="120" cy="115" r="55" fill="#C0C0C0"/>
  <circle cx="120" cy="115" r="55" fill="none" stroke="#FFFFFF" stroke-width="1.5" opacity="0.6"/>
  <line x1="65" y1="115" x2="175" y2="115" stroke="#FFFFFF" stroke-width="0.5" opacity="0.5"/>
  <line x1="120" y1="60" x2="120" y2="170" stroke="#FFFFFF" stroke-width="0.5" opacity="0.5"/>
  <line x1="80" y1="78" x2="160" y2="152" stroke="#FFFFFF" stroke-width="0.5" opacity="0.4"/>
  <line x1="160" y1="78" x2="80" y2="152" stroke="#FFFFFF" stroke-width="0.5" opacity="0.4"/>
  <circle cx="120" cy="115" r="6" fill="#FFFFFF" opacity="0.7"/>
  <!-- 支撐桿（天線到主體） -->
  <line x1="120" y1="170" x2="120" y2="190" stroke="#A0A0A0" stroke-width="3"/>
  <!-- 主體（10 邊形盒） -->
  <polygon points="100,190 140,190 145,220 95,220" fill="#A0A0A0"/>
  <rect x="105" y="200" width="30" height="6" fill="#FFFFFF" opacity="0.3"/>
  <!-- 三腳 RTG 放射性同位素發電機（3 根桿 + 發電塊） -->
  <line x1="100" y1="220" x2="70" y2="245" stroke="#A0A0A0" stroke-width="2"/>
  <line x1="140" y1="220" x2="170" y2="245" stroke="#A0A0A0" stroke-width="2"/>
  <line x1="120" y1="220" x2="120" y2="250" stroke="#A0A0A0" stroke-width="2"/>
  <rect x="60" y="240" width="20" height="14" fill="#1a1a1a" stroke="#FFD700"/>
  <rect x="160" y="240" width="20" height="14" fill="#1a1a1a" stroke="#FFD700"/>
  <rect x="110" y="248" width="20" height="14" fill="#1a1a1a" stroke="#FFD700"/>
  <!-- 背景星 -->
  <circle cx="30" cy="40" r="1" fill="#FFFFFF"/>
  <circle cx="210" cy="50" r="1.5" fill="#FFFFFF"/>
  <circle cx="40" cy="170" r="1" fill="#FFFFFF"/>
  <circle cx="200" cy="160" r="1" fill="#FFFFFF"/>
  
  <text x="120" y="295" text-anchor="middle" fill="#FFFFFF" font-size="16" font-weight="bold" font-family="sans-serif" letter-spacing="1">VOYAGER 2</text>
</svg>