<svg viewBox="0 0 240 320" xmlns="http://www.w3.org/2000/svg">
  <defs>
    <linearGradient id="bg" x1="0" y1="0" x2="0" y2="1">
      <stop offset="0%" stop-color="#1a1a2e"/><stop offset="100%" stop-color="#0a0a1a"/>
    </linearGradient>
    <radialGradient id="xai-g" cx="50%" cy="50%">
      <stop offset="0%" stop-color="#4488FF"/><stop offset="100%" stop-color="#1a2a5a"/>
    </radialGradient>
  </defs>
  <rect width="240" height="320" fill="url(#bg)"/>
  <!-- 大腦輪廓 -->
  <path d="M 120 80 Q 70 80 70 130 Q 60 150 70 175 Q 70 210 120 215 Q 170 210 170 175 Q 180 150 170 130 Q 170 80 120 80 Z" fill="url(#xai-g)"/>
  <!-- 神經突觸線 -->
  <circle cx="100" cy="120" r="4" fill="#88CCFF"/>
  <circle cx="140" cy="120" r="4" fill="#88CCFF"/>
  <circle cx="90" cy="155" r="4" fill="#88CCFF"/>
  <circle cx="150" cy="155" r="4" fill="#88CCFF"/>
  <circle cx="100" cy="190" r="4" fill="#88CCFF"/>
  <circle cx="140" cy="190" r="4" fill="#88CCFF"/>
  <line x1="100" y1="120" x2="140" y2="120" stroke="#88CCFF" stroke-width="1.5" opacity="0.7"/>
  <line x1="100" y1="120" x2="90" y2="155" stroke="#88CCFF" stroke-width="1.5" opacity="0.7"/>
  <line x1="140" y1="120" x2="150" y2="155" stroke="#88CCFF" stroke-width="1.5" opacity="0.7"/>
  <line x1="90" y1="155" x2="100" y2="190" stroke="#88CCFF" stroke-width="1.5" opacity="0.7"/>
  <line x1="150" y1="155" x2="140" y2="190" stroke="#88CCFF" stroke-width="1.5" opacity="0.7"/>
  <line x1="100" y1="190" x2="140" y2="190" stroke="#88CCFF" stroke-width="1.5" opacity="0.7"/>
  <line x1="90" y1="155" x2="150" y2="155" stroke="#88CCFF" stroke-width="1.5" opacity="0.7"/>
  <text x="120" y="295" text-anchor="middle" fill="#88CCFF" font-size="22" font-weight="bold" font-family="sans-serif" letter-spacing="3">xAI</text>
</svg>