<svg xmlns="http://www.w3.org/2000/svg" viewBox="0 0 200 400" preserveAspectRatio="xMidYMid meet">
  <defs>
    <linearGradient id="body9" x1="0" y1="0" x2="1" y2="0">
      <stop offset="0" stop-color="#e0e0e0"/>
      <stop offset="0.5" stop-color="#ffffff"/>
      <stop offset="1" stop-color="#888"/>
    </linearGradient>
  </defs>
  <rect width="200" height="400" fill="#0a0a1a"/>
  <!-- 箭體 -->
  <rect x="78" y="60" width="44" height="290" fill="url(#body9)" stroke="#666"/>
  <!-- 整流罩 -->
  <path d="M 78 60 Q 100 30 122 60" fill="#cccccc"/>
  <!-- 商標 -->
  <text x="100" y="150" text-anchor="middle" font-size="12" font-family="Arial" font-weight="bold" fill="#222">FALCON 9</text>
  <rect x="82" y="160" width="36" height="3" fill="#00aaff"/>
  <!-- 引擎段 -->
  <rect x="80" y="350" width="40" height="20" fill="#333"/>
  <!-- 著陸腳 -->
  <path d="M 78 320 L 60 360 L 64 360 L 80 330" fill="#666"/>
  <path d="M 122 320 L 140 360 L 136 360 L 120 330" fill="#666"/>
  <!-- 網格格柵 -->
  <g stroke="#888" stroke-width="0.5" opacity="0.5">
    <line x1="78" y1="100" x2="122" y2="100"/>
    <line x1="78" y1="200" x2="122" y2="200"/>
    <line x1="78" y1="300" x2="122" y2="300"/>
  </g>
  <!-- 火焰 -->
  <path d="M 82 370 Q 88 395 100 400 Q 112 395 118 370 Z" fill="#ff6b35" opacity="0.7"/>
  <path d="M 88 370 Q 92 390 100 395 Q 108 390 112 370 Z" fill="#ffcc00" opacity="0.9"/>
</svg>
