<svg xmlns="http://www.w3.org/2000/svg" viewBox="0 0 200 400" preserveAspectRatio="xMidYMid meet">
  <defs>
    <linearGradient id="b2-body" x1="0" y1="0" x2="1" y2="0">
      <stop offset="0" stop-color="#e8e8e8"/>
      <stop offset="0.5" stop-color="#ffffff"/>
      <stop offset="1" stop-color="#909090"/>
    </linearGradient>
  </defs>
  <rect width="200" height="400" fill="#0a0a1a"/>
  <!-- Block 2: 123.3m 更高，更薄襟翼，更多燃料 -->
  <path d="M 62 70 L 138 70 L 140 360 L 60 360 Z" fill="url(#b2-body)" stroke="#666" stroke-width="1.5"/>
  <!-- 改進的隔熱瓦（更小、更多） -->
  <g fill="#1a1a1a">
    <rect x="62" y="120" width="78" height="6"/>
    <rect x="62" y="132" width="78" height="6"/>
    <rect x="62" y="144" width="78" height="6"/>
    <rect x="62" y="156" width="78" height="6"/>
    <rect x="62" y="168" width="78" height="6"/>
  </g>
  <!-- 頭錐 -->
  <path d="M 62 70 Q 100 45 138 70 Z" fill="#bbb"/>
  <!-- 更薄的襟翼（Block 2 特色） -->
  <path d="M 62 200 L 35 285 L 62 285 Z" fill="#777"/>
  <path d="M 138 200 L 165 285 L 138 285 Z" fill="#777"/>
  <line x1="45" y1="250" x2="62" y2="250" stroke="#fff" stroke-width="0.4" opacity="0.4"/>
  <line x1="155" y1="250" x2="138" y2="250" stroke="#fff" stroke-width="0.4" opacity="0.4"/>
  <!-- 隔熱瓦紋理（更多） -->
  <g stroke="#bbb" stroke-width="0.3" opacity="0.4">
    <line x1="62" y1="90" x2="138" y2="90"/>
    <line x1="62" y1="110" x2="138" y2="110"/>
    <line x1="62" y1="200" x2="138" y2="200"/>
    <line x1="62" y1="220" x2="138" y2="220"/>
    <line x1="62" y1="240" x2="138" y2="240"/>
    <line x1="62" y1="260" x2="138" y2="260"/>
    <line x1="62" y1="280" x2="138" y2="280"/>
    <line x1="62" y1="300" x2="138" y2="300"/>
    <line x1="62" y1="320" x2="138" y2="320"/>
    <line x1="62" y1="340" x2="138" y2="340"/>
  </g>
  <text x="100" y="200" text-anchor="middle" font-size="11" font-family="Arial" font-weight="bold" fill="#222">BLOCK 2</text>
  <text x="100" y="213" text-anchor="middle" font-size="7" font-family="Arial" fill="#666">v2.0 · 35t LEO · +25% 燃料</text>
  <!-- Raptor 2 引擎（3+3 數量同 Block 1，但外觀更現代） -->
  <g fill="#1a1a1a">
    <rect x="65" y="360" width="10" height="8"/>
    <rect x="78" y="360" width="10" height="8"/>
    <rect x="91" y="360" width="10" height="8"/>
    <rect x="100" y="360" width="10" height="8"/>
    <rect x="110" y="360" width="10" height="8"/>
    <rect x="123" y="360" width="10" height="8"/>
  </g>
  <g opacity="0.85">
    <path d="M 65 368 Q 68 385 70 400 Q 75 385 75 368 Z" fill="#ff6b35"/>
    <path d="M 78 368 Q 81 385 83 400 Q 88 385 88 368 Z" fill="#ff6b35"/>
    <path d="M 91 368 Q 94 385 96 400 Q 100 385 100 368 Z" fill="#ff6b35"/>
    <path d="M 100 368 Q 103 385 105 400 Q 110 385 110 368 Z" fill="#ff6b35"/>
    <path d="M 110 368 Q 113 385 115 400 Q 120 385 120 368 Z" fill="#ff6b35"/>
    <path d="M 123 368 Q 126 385 128 400 Q 133 385 133 368 Z" fill="#ff6b35"/>
  </g>
</svg>
